<svg xmlns="http://www.w3.org/2000/svg" width="612" height="792"><g fill-rule="evenodd" clip-rule="evenodd"><path fill="red" d="M209 300h192.756v192.756H209V300z"/><path d="M242.633 316.585c-.909 8 2.243 15.273 8.969 19.636 10.485 7.212 22.727 10.06 32.727 18.363 2.728 2.545 4.485 5.697 3.94 9.455-8.122 8.969-14.243 20.484-10.304 32.848 2.849 9.938 7.333 19.211 12.182 28.361-9.212 4.547-20.788 9.818-24.848 20.363-.909 2.666-1.879 5.273-2.303 8.121-1.333-8.605-6.242-16.363-13.575-22.242.546 3.455-.061 7.152-1.697 10.061-4.484 6.363-7.575 14.969-4.546 22.848 1.819 5.516 7.334 10.666 12.788 12.363-10.242-.242-20.666-5.514-25.272-15.15-4.06-8.605-2.242-20.242 3.455-27.514 3.818-5.818 10.424-11.092 8.606-18.729 7.696 4.426 17.515 6.303 22.423 15.092.606-.848 0-1.939 0-2.91-2.848-9.938-13.939-10.969-21.09-15.816-7.575-3.031-14.242-10.85-14.727-19.211-.667-4.97-.243-10.242 1.879-14.424 4.787 8.909 14.908 11.03 22.726 15.576 4.667 2.484 10.061 4.544 13.091 9.757.182-4.182-2.364-7.879-5.818-10.485-12.545-6.788-32.545-12.848-32.908-30.848-.182-5.151 1.151-9.636 3.394-13.818.606.606.606 1.758 1.151 2.485 7.939 11.939 21.454 13.151 31.394 22 1.515 1.515 2.423 3.394 3.636 5.09 1.031-4.909-1.697-9.333-5.818-12.121-2.727-1.758-5.939-2.788-8.545-4.606-9.697-4.182-21.757-12.727-22.121-24.605-1.758-10.667 3.939-20.06 12.666-26.302-.485 1.817-1.455 4.06-1.455 6.362z"/><path d="M306.752 462.217c2.728-10.061-2.424-21.332 1.575-31.15 0-.242.122-.545-.121-.727-2.242 1.818-4.06 3.695-6.242 5.697 3.394-6.971 6.181-15.516 4.364-24.182-.243-.668-.788 0-.909.303-1.818 5.393-7.151 9.271-12.061 11.637-6.121-12-13.454-23.637-12.787-38.242 1.515-13.333 14.545-21.454 19.939-33.15 1.272-4.122.484-8.849-2.485-11.939-2.849-2.788-6.303-4.061-10.06-4.666.484-1.637 1.757-3.333 3.394-4.061 3.272-1.636 7.151-.182 10.181 1.03 5.091-2.424 11.151-.121 15.817 2 4.546 2 8.242 6.121 13.697 6-.122 1.394-1.758 2.364-2.909 2.909-4.303.606-8-1.515-11.636-2.485 4.363 6.97 2.605 16.363.121 23.696.06.061.121.122.182.122 4.787-6.606 12.06-11.091 18.908-14.667 7.151-3.454 14.363-6.727 21.515-10.302 6.728-4.122 12.424-11.212 12.182-19.515-.182-2.97-.606-5.879-1.879-8.425 8.97 6.061 13.696 15.333 12.545 26-.908 10.061-8.97 19.939-18.484 23.151-7.272 4.666-19.999 7.272-20.363 18.302 2.304-3.636 6-6.849 9.879-8.545 10-5.879 22.787-8.243 28.484-20.061h.303c4.242 8.909 3.272 21.272-3.636 28.605-8 8.606-19.151 10.302-28.363 16.484-4.303 2.666-6.667 7.152-6.849 11.758 5.091-9.516 15.818-10.971 24-15.697 5.333-2.606 11.151-5.394 14.727-10.605h.303c2.425 9.636 1.454 21.392-6.727 28.06-7.454 6-16.363 8.545-24.303 13.514-2.606 1.939-4.121 4.545-5.091 7.273.121.121.243.182.303.303 6.97-7.273 16.909-7.455 24.424-13.395-1.454 10.729 9.758 16.787 11.091 26.605 2.484 10.969-1.333 21.697-10.061 28.787-5.394 4.061-12.362 4.85-19.211 4.971 1.212-.242 2.484-.85 3.817-1.031 5.879-2.121 11.212-7.818 11.636-14.242.849-10.969-10.242-19.635-3.938-30.664-1.758.119-3.272 1.695-4.97 2.605-9.151 6.121-12.909 16.061-18.908 24.301h-.243c3.576-5.877 1.516-14.119 6.242-19.514.546-.303.667-1.092 1.031-1.576-3.273.363-6.304 2.242-9.03 4.363-13.939 9.395-14.848 29.455-32.423 34-4.606 1.332-10.06 1.758-14.848 1.332 7.817-1.149 15.999-6.907 17.877-14.967zm7.697-9.637c6.908-9.211 21.817-12.787 22.969-25.756-1.939 1.697-4.242 2.545-6.242 4.242-.182.061-.546.303-.728 0 1.758-3.15 2.484-6.727 3.333-10.182.243-2.121.788-4.424.909-6.242-5.454 5.455-12.97 7.516-17.151 14.545-4.969 6.727-2.726 15.516-3.09 23.393z"/><path d="M293.964 434.279c-4 8.545.788 19.998-4.06 28.361-4.667 9.516-14.969 15.637-25.938 14.545 3.757-.848 6.787-4.848 7.757-8.301 1.818-7.152.606-15.637 5.515-21.516 4.605-7.334 12.484-10.061 18.302-16 0 .851-1.211 1.88-1.576 2.911zm61.514 11.938c-2.908 6.123.242 13.152-2.605 19.637-2.304 5.879-8.484 10.242-14.545 11.029-7.212.607-14.303.607-21.515.607 14.424-2.426 26.303-14.303 33.999-26.787 1.272-1.637 2.909-3.455 4.666-4.486z"/></g></svg>